# xmcd
#
# Track frame offsets: 
#        150
#        9447
#        24307
#        40299
#        54909
#        70808
#        85542
#        99319
#        114569
#        127137
#        141914
#        158840
#
# Disc length: 2346 seconds
#
# Revision: 0
# Processed by: cddbd v1.5.2PL0 Copyright (c) Steve Scherf et al.
# Submitted via: ExactAudioCopy v0.99pb3
#
DISCID=9209280c
DTITLE=Curtis Potter - Down In Texas Today
DYEAR=2006
DGENRE=Country
TTITLE0=One Away From One Too Many Heartaches
TTITLE1=Old Loves Never Die
TTITLE2=I Wish It Was That Easy Going Home
TTITLE3=Heart of A Clown
TTITLE4=If This Was Texas
TTITLE5=Then I Can Face Your Memory
TTITLE6=We Never Touch At All
TTITLE7=So Many Ways To Say Goodbye
TTITLE8=The Farther I Go With You
TTITLE9=Oklahoma Sunshine
TTITLE10=A Man With No Soul At All
TTITLE11=Down In Texas Today
EXTD=
EXTT0=
EXTT1=
EXTT2=
EXTT3=
EXTT4=
EXTT5=
EXTT6=
EXTT7=
EXTT8=
EXTT9=
EXTT10=
EXTT11=
PLAYORDER=
